<?xml version="1.0" standalone="no"?>
<!DOCTYPE svg PUBLIC "-//W3C//DTD SVG 20010904//EN"
 "http://www.w3.org/TR/2001/REC-SVG-20010904/DTD/svg10.dtd">
<svg version="1.0" xmlns="http://www.w3.org/2000/svg"
 width="512.000000pt" height="512.000000pt" viewBox="0 0 512.000000 512.000000"
 preserveAspectRatio="xMidYMid meet">
<metadata>
Created by potrace 1.16, written by Peter Selinger 2001-2019
</metadata>
<g transform="translate(0.000000,512.000000) scale(0.100000,-0.100000)"
fill="#000000" stroke="none">
<path d="M2240 5105 c-444 -55 -852 -220 -1220 -493 -150 -112 -400 -362 -512
-512 -276 -372 -439 -779 -494 -1230 -17 -148 -17 -472 0 -620 55 -451 218
-858 494 -1230 112 -150 362 -400 512 -512 372 -276 779 -439 1230 -494 148
-17 472 -17 620 0 451 55 858 218 1230 494 150 112 400 362 512 512 276 372
439 779 494 1230 17 148 17 472 0 620 -55 451 -218 858 -494 1230 -112 150
-362 400 -512 512 -372 276 -779 439 -1230 494 -143 17 -488 16 -630 -1z m575
-1129 c284 -85 513 -314 601 -601 26 -83 28 -103 28 -255 0 -152 -2 -172 -28
-255 -88 -286 -315 -513 -601 -601 -83 -26 -103 -28 -255 -28 -152 0 -172 2
-255 28 -286 88 -513 315 -601 601 -26 83 -28 103 -28 255 0 152 2 172 28 255
96 315 348 546 677 620 105 24 322 14 434 -19z m2 -1782 c605 -89 1128 -484
1378 -1040 l45 -99 -68 -68 c-353 -359 -838 -602 -1325 -662 -155 -19 -419
-19 -574 0 -487 60 -972 303 -1325 662 l-68 68 45 99 c91 202 206 367 370 531
278 277 617 450 1000 509 125 20 393 20 522 0z"/>
</g>
</svg>
