<svg xmlns="http://www.w3.org/2000/svg" width="150" viewBox="0 0 150 45" height="45" version="1.0"><defs><clipPath id="a"><path d="M 1.050781 1.054688 L 43.800781 1.054688 L 43.800781 43.804688 L 1.050781 43.804688 Z M 1.050781 1.054688"/></clipPath><clipPath id="b"><path d="M 8 15.421875 L 37 15.421875 L 37 23 L 8 23 Z M 8 15.421875"/></clipPath><clipPath id="c"><path d="M 32 26 L 35 26 L 35 31.921875 L 32 31.921875 Z M 32 26"/></clipPath></defs><g clip-path="url(#a)"><path fill="#5E17EB" d="M 42.988281 22.421875 L 43.773438 20.660156 L 42.707031 19.042969 L 43.203125 17.171875 L 41.875 15.761719 L 42.046875 13.835938 L 40.507812 12.65625 L 40.363281 10.734375 L 38.644531 9.828125 L 38.183594 7.945312 L 36.34375 7.332031 L 35.574219 5.550781 L 33.660156 5.246094 L 32.617188 3.621094 L 30.675781 3.636719 L 29.367188 2.199219 L 27.460938 2.535156 L 25.929688 1.335938 L 24.101562 1.980469 L 22.398438 1.046875 L 20.707031 1.980469 L 18.875 1.335938 L 17.347656 2.535156 L 15.441406 2.199219 L 14.132812 3.636719 L 12.191406 3.621094 L 11.148438 5.246094 L 9.230469 5.550781 L 8.460938 7.332031 L 6.625 7.945312 L 6.164062 9.828125 L 4.445312 10.734375 L 4.300781 12.65625 L 2.761719 13.835938 L 2.929688 15.761719 L 1.605469 17.171875 L 2.101562 19.042969 L 1.023438 20.660156 L 1.820312 22.421875 L 1.023438 24.191406 L 2.101562 25.800781 L 1.605469 27.671875 L 2.929688 29.089844 L 2.761719 31.015625 L 4.300781 32.1875 L 4.445312 34.117188 L 6.164062 35.023438 L 6.625 36.90625 L 8.460938 37.519531 L 9.230469 39.289062 L 11.148438 39.597656 L 12.191406 41.222656 L 14.132812 41.214844 L 15.441406 42.640625 L 17.347656 42.316406 L 18.875 43.515625 L 20.707031 42.863281 L 22.398438 43.796875 L 24.101562 42.863281 L 25.929688 43.515625 L 27.460938 42.316406 L 29.367188 42.640625 L 30.675781 41.214844 L 32.617188 41.222656 L 33.660156 39.597656 L 35.574219 39.289062 L 36.34375 37.511719 L 38.183594 36.898438 L 38.644531 35.023438 L 40.363281 34.117188 L 40.507812 32.1875 L 42.046875 31.015625 L 41.875 29.089844 L 43.203125 27.671875 L 42.707031 25.800781 L 43.773438 24.191406 Z M 42.988281 22.421875"/></g><g clip-path="url(#b)"><path fill="#FFFCF1" d="M 23.328125 22.726562 L 36.703125 19.308594 L 25.089844 15.890625 L 8.390625 18.757812 L 23.328125 22.726562"/></g><path fill="#FFFCF1" d="M 23.328125 22.726562 L 8.390625 18.757812 L 8.386719 20.191406 L 23.324219 24.160156 L 36.703125 20.742188 L 36.703125 19.308594 L 23.328125 22.726562"/><path fill="#FFFCF1" d="M 23.328125 24.875 L 15.335938 22.753906 L 15.335938 27.027344 C 15.335938 27.027344 17.898438 29.230469 22.996094 29.230469 C 28.09375 29.230469 31.152344 27.027344 31.152344 27.027344 L 31.152344 22.726562 L 23.328125 24.875"/><g clip-path="url(#c)"><path fill="#FFFCF1" d="M 34.820312 30.8125 L 34.359375 30.921875 L 34.140625 28.53125 L 34.160156 31.054688 L 33.648438 31.054688 L 33.648438 29.753906 L 33.421875 30.933594 L 32.78125 30.8125 L 33.648438 26.488281 L 34.359375 26.488281 L 34.820312 30.8125"/></g><path fill="#FFFCF1" d="M 34.59375 26.488281 C 34.59375 26.792969 34.347656 27.039062 34.042969 27.039062 C 33.742188 27.039062 33.496094 26.792969 33.496094 26.488281 C 33.496094 26.1875 33.742188 25.941406 34.042969 25.941406 C 34.347656 25.941406 34.59375 26.1875 34.59375 26.488281"/><path fill="#FFFCF1" d="M 33.6875 26.6875 L 34.296875 26.6875 L 34.296875 20.234375 L 33.6875 20.234375 Z M 33.6875 26.6875"/><g fill="#5E17EB"><g><g><path d="M 3.46875 0.09375 C 2.5625 0.09375 1.828125 -0.195312 1.265625 -0.78125 C 0.703125 -1.363281 0.421875 -2.140625 0.421875 -3.109375 C 0.421875 -4.078125 0.703125 -4.851562 1.265625 -5.4375 C 1.835938 -6.019531 2.570312 -6.3125 3.46875 -6.3125 C 4.21875 -6.3125 4.835938 -6.132812 5.328125 -5.78125 C 5.816406 -5.425781 6.148438 -4.914062 6.328125 -4.25 L 4.9375 -4.25 C 4.707031 -4.90625 4.21875 -5.234375 3.46875 -5.234375 C 2.9375 -5.234375 2.515625 -5.046875 2.203125 -4.671875 C 1.890625 -4.304688 1.734375 -3.785156 1.734375 -3.109375 C 1.734375 -2.441406 1.890625 -1.921875 2.203125 -1.546875 C 2.515625 -1.171875 2.9375 -0.984375 3.46875 -0.984375 C 4.207031 -0.984375 4.695312 -1.3125 4.9375 -1.96875 L 6.328125 -1.96875 C 6.148438 -1.332031 5.8125 -0.828125 5.3125 -0.453125 C 4.8125 -0.0859375 4.195312 0.09375 3.46875 0.09375 Z M 3.46875 0.09375" transform="translate(76.287 34.84)"/></g></g></g><g fill="#5E17EB"><g><g><path d="M 4.9375 -1.578125 C 5.3125 -1.960938 5.5 -2.472656 5.5 -3.109375 C 5.5 -3.753906 5.3125 -4.265625 4.9375 -4.640625 C 4.570312 -5.015625 4.132812 -5.203125 3.625 -5.203125 C 3.113281 -5.203125 2.671875 -5.015625 2.296875 -4.640625 C 1.921875 -4.273438 1.734375 -3.769531 1.734375 -3.125 C 1.734375 -2.488281 1.921875 -1.976562 2.296875 -1.59375 C 2.671875 -1.207031 3.113281 -1.015625 3.625 -1.015625 C 4.132812 -1.015625 4.570312 -1.203125 4.9375 -1.578125 Z M 3.34375 0.09375 C 2.519531 0.09375 1.828125 -0.207031 1.265625 -0.8125 C 0.703125 -1.414062 0.421875 -2.1875 0.421875 -3.125 C 0.421875 -4.070312 0.695312 -4.835938 1.25 -5.421875 C 1.8125 -6.015625 2.507812 -6.3125 3.34375 -6.3125 C 3.832031 -6.3125 4.265625 -6.203125 4.640625 -5.984375 C 5.015625 -5.765625 5.300781 -5.472656 5.5 -5.109375 L 5.5 -6.21875 L 6.796875 -6.21875 L 6.796875 0 L 5.5 0 L 5.5 -1.15625 C 5.289062 -0.78125 5 -0.476562 4.625 -0.25 C 4.257812 -0.0195312 3.832031 0.09375 3.34375 0.09375 Z M 3.34375 0.09375" transform="translate(83.61 34.84)"/></g></g></g><g fill="#5E17EB"><g><g><path d="M 2.125 -6.21875 L 2.125 -5.140625 C 2.53125 -5.921875 3.15625 -6.3125 4 -6.3125 L 4 -4.984375 L 3.671875 -4.984375 C 3.160156 -4.984375 2.773438 -4.851562 2.515625 -4.59375 C 2.253906 -4.34375 2.125 -3.898438 2.125 -3.265625 L 2.125 0 L 0.84375 0 L 0.84375 -6.21875 Z M 2.125 -6.21875" transform="translate(91.814 34.84)"/></g></g></g><g fill="#5E17EB"><g><g><path d="M 4.9375 -1.578125 C 5.3125 -1.960938 5.5 -2.472656 5.5 -3.109375 C 5.5 -3.753906 5.3125 -4.265625 4.9375 -4.640625 C 4.570312 -5.015625 4.132812 -5.203125 3.625 -5.203125 C 3.113281 -5.203125 2.671875 -5.015625 2.296875 -4.640625 C 1.921875 -4.273438 1.734375 -3.769531 1.734375 -3.125 C 1.734375 -2.488281 1.921875 -1.976562 2.296875 -1.59375 C 2.671875 -1.207031 3.113281 -1.015625 3.625 -1.015625 C 4.132812 -1.015625 4.570312 -1.203125 4.9375 -1.578125 Z M 3.34375 0.09375 C 2.519531 0.09375 1.828125 -0.207031 1.265625 -0.8125 C 0.703125 -1.414062 0.421875 -2.1875 0.421875 -3.125 C 0.421875 -4.070312 0.695312 -4.835938 1.25 -5.421875 C 1.8125 -6.015625 2.507812 -6.3125 3.34375 -6.3125 C 3.832031 -6.3125 4.265625 -6.203125 4.640625 -5.984375 C 5.015625 -5.765625 5.300781 -5.472656 5.5 -5.109375 L 5.5 -8.34375 L 6.796875 -8.34375 L 6.796875 0 L 5.5 0 L 5.5 -1.15625 C 5.289062 -0.78125 5 -0.476562 4.625 -0.25 C 4.257812 -0.0195312 3.832031 0.09375 3.34375 0.09375 Z M 3.34375 0.09375" transform="translate(96.705 34.84)"/></g></g></g><g fill="#5E17EB"><g><g><path d="M 0.5625 -4.4375 C 0.5625 -4.957031 0.78125 -5.398438 1.21875 -5.765625 C 1.664062 -6.128906 2.25 -6.3125 2.96875 -6.3125 C 3.695312 -6.3125 4.273438 -6.132812 4.703125 -5.78125 C 5.128906 -5.425781 5.351562 -4.941406 5.375 -4.328125 L 4.0625 -4.328125 C 4.039062 -4.628906 3.929688 -4.863281 3.734375 -5.03125 C 3.546875 -5.207031 3.28125 -5.296875 2.9375 -5.296875 C 2.59375 -5.296875 2.320312 -5.21875 2.125 -5.0625 C 1.925781 -4.914062 1.828125 -4.710938 1.828125 -4.453125 C 1.828125 -4.203125 1.953125 -4.003906 2.203125 -3.859375 C 2.453125 -3.722656 2.753906 -3.617188 3.109375 -3.546875 C 3.460938 -3.484375 3.816406 -3.398438 4.171875 -3.296875 C 4.535156 -3.203125 4.835938 -3.023438 5.078125 -2.765625 C 5.328125 -2.503906 5.453125 -2.15625 5.453125 -1.71875 C 5.453125 -1.175781 5.222656 -0.738281 4.765625 -0.40625 C 4.316406 -0.0703125 3.734375 0.09375 3.015625 0.09375 C 2.304688 0.09375 1.726562 -0.078125 1.28125 -0.421875 C 0.84375 -0.765625 0.597656 -1.253906 0.546875 -1.890625 L 1.890625 -1.890625 C 1.910156 -1.585938 2.019531 -1.347656 2.21875 -1.171875 C 2.425781 -0.992188 2.703125 -0.90625 3.046875 -0.90625 C 3.398438 -0.90625 3.679688 -0.984375 3.890625 -1.140625 C 4.097656 -1.296875 4.203125 -1.5 4.203125 -1.75 C 4.203125 -2.007812 4.078125 -2.210938 3.828125 -2.359375 C 3.578125 -2.503906 3.269531 -2.609375 2.90625 -2.671875 C 2.550781 -2.742188 2.195312 -2.828125 1.84375 -2.921875 C 1.488281 -3.015625 1.1875 -3.1875 0.9375 -3.4375 C 0.6875 -3.6875 0.5625 -4.019531 0.5625 -4.4375 Z M 0.5625 -4.4375" transform="translate(104.908 34.84)"/></g></g></g><g fill="#5E17EB"><g><g><path d="M 1.140625 -10.640625 L 3.296875 -10.640625 L 3.296875 -1.625 L 6.703125 -1.625 L 6.703125 0 L 1.140625 0 Z M 1.140625 -10.640625" transform="translate(56.677 20.68)"/></g></g></g><g fill="#5E17EB"><g><g><path d="M 4.703125 0.125 C 3.472656 0.125 2.472656 -0.269531 1.703125 -1.0625 C 0.929688 -1.863281 0.546875 -2.921875 0.546875 -4.234375 C 0.546875 -5.546875 0.929688 -6.59375 1.703125 -7.375 C 2.484375 -8.164062 3.488281 -8.5625 4.71875 -8.5625 C 5.957031 -8.5625 6.972656 -8.175781 7.765625 -7.40625 C 8.554688 -6.644531 8.953125 -5.625 8.953125 -4.34375 C 8.953125 -4.050781 8.929688 -3.773438 8.890625 -3.515625 L 2.75 -3.515625 C 2.789062 -2.972656 2.988281 -2.53125 3.34375 -2.1875 C 3.707031 -1.851562 4.160156 -1.6875 4.703125 -1.6875 C 5.441406 -1.6875 5.992188 -1.992188 6.359375 -2.609375 L 8.671875 -2.609375 C 8.421875 -1.804688 7.945312 -1.148438 7.25 -0.640625 C 6.550781 -0.128906 5.703125 0.125 4.703125 0.125 Z M 6.734375 -4.90625 C 6.703125 -5.46875 6.492188 -5.914062 6.109375 -6.25 C 5.734375 -6.582031 5.273438 -6.75 4.734375 -6.75 C 4.203125 -6.75 3.753906 -6.582031 3.390625 -6.25 C 3.023438 -5.914062 2.8125 -5.46875 2.75 -4.90625 Z M 6.734375 -4.90625" transform="translate(64.447 20.68)"/></g></g></g><g fill="#5E17EB"><g><g><path d="M 6.515625 -2.390625 C 6.960938 -2.835938 7.1875 -3.445312 7.1875 -4.21875 C 7.1875 -4.988281 6.960938 -5.59375 6.515625 -6.03125 C 6.066406 -6.476562 5.539062 -6.703125 4.9375 -6.703125 C 4.34375 -6.703125 3.828125 -6.484375 3.390625 -6.046875 C 2.953125 -5.609375 2.734375 -5.003906 2.734375 -4.234375 C 2.734375 -3.460938 2.953125 -2.851562 3.390625 -2.40625 C 3.835938 -1.957031 4.359375 -1.734375 4.953125 -1.734375 C 5.546875 -1.734375 6.066406 -1.953125 6.515625 -2.390625 Z M 1.671875 -1.09375 C 0.921875 -1.914062 0.546875 -2.960938 0.546875 -4.234375 C 0.546875 -5.503906 0.921875 -6.539062 1.671875 -7.34375 C 2.421875 -8.15625 3.375 -8.5625 4.53125 -8.5625 C 5.695312 -8.5625 6.582031 -8.082031 7.1875 -7.125 L 7.1875 -8.4375 L 9.328125 -8.4375 L 9.328125 0 L 7.1875 0 L 7.1875 -1.421875 C 6.550781 -0.390625 5.660156 0.125 4.515625 0.125 C 3.378906 0.125 2.429688 -0.28125 1.671875 -1.09375 Z M 1.671875 -1.09375" transform="translate(74.716 20.68)"/></g></g></g><g fill="#5E17EB"><g><g><path d="M 3.296875 -8.4375 L 3.296875 -6.953125 C 3.859375 -8.023438 4.679688 -8.5625 5.765625 -8.5625 L 5.765625 -6.375 L 5.21875 -6.375 C 4.582031 -6.375 4.101562 -6.210938 3.78125 -5.890625 C 3.457031 -5.566406 3.296875 -5.015625 3.296875 -4.234375 L 3.296875 0 L 1.140625 0 L 1.140625 -8.4375 Z M 3.296875 -8.4375" transform="translate(85.944 20.68)"/></g></g></g><g fill="#5E17EB"><g><g><path d="M 3.296875 -8.4375 L 3.296875 -7.171875 C 3.828125 -8.097656 4.695312 -8.5625 5.90625 -8.5625 C 6.875 -8.5625 7.660156 -8.242188 8.265625 -7.609375 C 8.878906 -6.972656 9.1875 -6.09375 9.1875 -4.96875 L 9.1875 0 L 7.046875 0 L 7.046875 -4.65625 C 7.046875 -5.320312 6.878906 -5.828125 6.546875 -6.171875 C 6.210938 -6.523438 5.753906 -6.703125 5.171875 -6.703125 C 4.597656 -6.703125 4.140625 -6.523438 3.796875 -6.171875 C 3.460938 -5.828125 3.296875 -5.320312 3.296875 -4.65625 L 3.296875 0 L 1.140625 0 L 1.140625 -8.4375 Z M 3.296875 -8.4375" transform="translate(92.846 20.68)"/></g></g></g><g fill="#5E17EB"><g><g><path d="M 3.515625 -10.59375 C 3.515625 -10.226562 3.382812 -9.914062 3.125 -9.65625 C 2.875 -9.40625 2.566406 -9.28125 2.203125 -9.28125 C 1.847656 -9.28125 1.546875 -9.40625 1.296875 -9.65625 C 1.046875 -9.914062 0.921875 -10.226562 0.921875 -10.59375 C 0.921875 -10.957031 1.046875 -11.265625 1.296875 -11.515625 C 1.546875 -11.765625 1.847656 -11.890625 2.203125 -11.890625 C 2.566406 -11.890625 2.875 -11.765625 3.125 -11.515625 C 3.382812 -11.265625 3.515625 -10.957031 3.515625 -10.59375 Z M 1.140625 0 L 1.140625 -8.4375 L 3.296875 -8.4375 L 3.296875 0 Z M 1.140625 0" transform="translate(103.86 20.68)"/></g></g></g><g fill="#5E17EB"><g><g><path d="M 3.296875 -8.4375 L 3.296875 -7.171875 C 3.828125 -8.097656 4.695312 -8.5625 5.90625 -8.5625 C 6.875 -8.5625 7.660156 -8.242188 8.265625 -7.609375 C 8.878906 -6.972656 9.1875 -6.09375 9.1875 -4.96875 L 9.1875 0 L 7.046875 0 L 7.046875 -4.65625 C 7.046875 -5.320312 6.878906 -5.828125 6.546875 -6.171875 C 6.210938 -6.523438 5.753906 -6.703125 5.171875 -6.703125 C 4.597656 -6.703125 4.140625 -6.523438 3.796875 -6.171875 C 3.460938 -5.828125 3.296875 -5.320312 3.296875 -4.65625 L 3.296875 0 L 1.140625 0 L 1.140625 -8.4375 Z M 3.296875 -8.4375" transform="translate(109.056 20.68)"/></g></g></g><g fill="#5E17EB"><g><g><path d="M 1.671875 -1.09375 C 0.921875 -1.914062 0.546875 -2.960938 0.546875 -4.234375 C 0.546875 -5.503906 0.921875 -6.539062 1.671875 -7.34375 C 2.421875 -8.15625 3.375 -8.5625 4.53125 -8.5625 C 5.695312 -8.5625 6.582031 -8.082031 7.1875 -7.125 L 7.1875 -8.4375 L 9.328125 -8.4375 L 9.328125 0.0625 C 9.328125 1.269531 8.96875 2.253906 8.25 3.015625 C 7.539062 3.785156 6.546875 4.171875 5.265625 4.171875 C 3.984375 4.171875 2.960938 3.90625 2.203125 3.375 C 1.441406 2.84375 1.015625 2.082031 0.921875 1.09375 L 3.015625 1.09375 C 3.148438 1.46875 3.40625 1.765625 3.78125 1.984375 C 4.15625 2.203125 4.625 2.3125 5.1875 2.3125 C 5.757812 2.3125 6.234375 2.125 6.609375 1.75 C 6.992188 1.375 7.1875 0.8125 7.1875 0.0625 L 7.1875 -1.421875 C 6.550781 -0.390625 5.660156 0.125 4.515625 0.125 C 3.378906 0.125 2.429688 -0.28125 1.671875 -1.09375 Z M 6.515625 -2.390625 C 6.960938 -2.835938 7.1875 -3.445312 7.1875 -4.21875 C 7.1875 -4.988281 6.960938 -5.59375 6.515625 -6.03125 C 6.066406 -6.476562 5.539062 -6.703125 4.9375 -6.703125 C 4.34375 -6.703125 3.828125 -6.484375 3.390625 -6.046875 C 2.953125 -5.609375 2.734375 -5.003906 2.734375 -4.234375 C 2.734375 -3.460938 2.953125 -2.851562 3.390625 -2.40625 C 3.835938 -1.957031 4.359375 -1.734375 4.953125 -1.734375 C 5.546875 -1.734375 6.066406 -1.953125 6.515625 -2.390625 Z M 6.515625 -2.390625" transform="translate(120.071 20.68)"/></g></g></g></svg>