<svg xmlns="http://www.w3.org/2000/svg" width="150" viewBox="0 0 150 45" height="45" version="1.0"><defs><clipPath id="a"><path d="M 1.050781 1.054688 L 43.800781 1.054688 L 43.800781 43.804688 L 1.050781 43.804688 Z M 1.050781 1.054688"/></clipPath><clipPath id="b"><path d="M 8 15.421875 L 37 15.421875 L 37 23 L 8 23 Z M 8 15.421875"/></clipPath><clipPath id="c"><path d="M 32 26 L 35 26 L 35 31.921875 L 32 31.921875 Z M 32 26"/></clipPath></defs><g clip-path="url(#a)"><path fill="#5E17EB" d="M 42.988281 22.421875 L 43.773438 20.660156 L 42.707031 19.042969 L 43.203125 17.171875 L 41.875 15.761719 L 42.046875 13.835938 L 40.507812 12.65625 L 40.363281 10.734375 L 38.644531 9.828125 L 38.183594 7.945312 L 36.34375 7.332031 L 35.574219 5.550781 L 33.660156 5.246094 L 32.617188 3.621094 L 30.675781 3.636719 L 29.367188 2.199219 L 27.460938 2.535156 L 25.929688 1.335938 L 24.101562 1.980469 L 22.398438 1.046875 L 20.707031 1.980469 L 18.875 1.335938 L 17.347656 2.535156 L 15.441406 2.199219 L 14.132812 3.636719 L 12.191406 3.621094 L 11.148438 5.246094 L 9.230469 5.550781 L 8.460938 7.332031 L 6.625 7.945312 L 6.164062 9.828125 L 4.445312 10.734375 L 4.300781 12.65625 L 2.761719 13.835938 L 2.929688 15.761719 L 1.605469 17.171875 L 2.101562 19.042969 L 1.023438 20.660156 L 1.820312 22.421875 L 1.023438 24.191406 L 2.101562 25.800781 L 1.605469 27.671875 L 2.929688 29.089844 L 2.761719 31.015625 L 4.300781 32.1875 L 4.445312 34.117188 L 6.164062 35.023438 L 6.625 36.90625 L 8.460938 37.519531 L 9.230469 39.289062 L 11.148438 39.597656 L 12.191406 41.222656 L 14.132812 41.214844 L 15.441406 42.640625 L 17.347656 42.316406 L 18.875 43.515625 L 20.707031 42.863281 L 22.398438 43.796875 L 24.101562 42.863281 L 25.929688 43.515625 L 27.460938 42.316406 L 29.367188 42.640625 L 30.675781 41.214844 L 32.617188 41.222656 L 33.660156 39.597656 L 35.574219 39.289062 L 36.34375 37.511719 L 38.183594 36.898438 L 38.644531 35.023438 L 40.363281 34.117188 L 40.507812 32.1875 L 42.046875 31.015625 L 41.875 29.089844 L 43.203125 27.671875 L 42.707031 25.800781 L 43.773438 24.191406 Z M 42.988281 22.421875"/></g><g clip-path="url(#b)"><path fill="#FFF" d="M 23.328125 22.726562 L 36.703125 19.308594 L 25.089844 15.890625 L 8.390625 18.757812 L 23.328125 22.726562"/></g><path fill="#FFF" d="M 23.328125 22.726562 L 8.390625 18.757812 L 8.386719 20.191406 L 23.324219 24.160156 L 36.703125 20.742188 L 36.703125 19.308594 L 23.328125 22.726562"/><path fill="#FFF" d="M 23.328125 24.875 L 15.335938 22.753906 L 15.335938 27.027344 C 15.335938 27.027344 17.898438 29.230469 22.996094 29.230469 C 28.09375 29.230469 31.152344 27.027344 31.152344 27.027344 L 31.152344 22.726562 L 23.328125 24.875"/><g clip-path="url(#c)"><path fill="#FFF" d="M 34.820312 30.8125 L 34.359375 30.921875 L 34.140625 28.53125 L 34.160156 31.054688 L 33.648438 31.054688 L 33.648438 29.753906 L 33.421875 30.933594 L 32.78125 30.8125 L 33.648438 26.488281 L 34.359375 26.488281 L 34.820312 30.8125"/></g><path fill="#FFF" d="M 34.59375 26.488281 C 34.59375 26.792969 34.347656 27.039062 34.042969 27.039062 C 33.742188 27.039062 33.496094 26.792969 33.496094 26.488281 C 33.496094 26.1875 33.742188 25.941406 34.042969 25.941406 C 34.347656 25.941406 34.59375 26.1875 34.59375 26.488281"/><path fill="#FFF" d="M 33.6875 26.6875 L 34.296875 26.6875 L 34.296875 20.234375 L 33.6875 20.234375 Z M 33.6875 26.6875"/><g fill="#5E17EB"><g><g><path d="M 3.15625 0.125 C 2.75 0.125 2.394531 0.0625 2.09375 -0.0625 C 1.789062 -0.195312 1.539062 -0.378906 1.34375 -0.609375 C 1.144531 -0.835938 1.003906 -1.113281 0.921875 -1.4375 C 0.847656 -1.757812 0.84375 -2.117188 0.90625 -2.515625 L 1.171875 -4.234375 C 1.304688 -5.066406 1.644531 -5.710938 2.1875 -6.171875 C 2.738281 -6.640625 3.4375 -6.875 4.28125 -6.875 C 4.625 -6.875 4.941406 -6.816406 5.234375 -6.703125 C 5.523438 -6.597656 5.769531 -6.441406 5.96875 -6.234375 C 6.175781 -6.035156 6.335938 -5.796875 6.453125 -5.515625 C 6.566406 -5.242188 6.617188 -4.941406 6.609375 -4.609375 L 5.5 -4.609375 C 5.519531 -4.992188 5.394531 -5.300781 5.125 -5.53125 C 4.863281 -5.769531 4.523438 -5.890625 4.109375 -5.890625 C 3.617188 -5.890625 3.207031 -5.742188 2.875 -5.453125 C 2.539062 -5.160156 2.335938 -4.753906 2.265625 -4.234375 L 1.984375 -2.515625 C 1.898438 -2.003906 1.972656 -1.597656 2.203125 -1.296875 C 2.441406 -1.003906 2.8125 -0.859375 3.3125 -0.859375 C 3.757812 -0.859375 4.144531 -0.972656 4.46875 -1.203125 C 4.789062 -1.429688 5.007812 -1.75 5.125 -2.15625 L 6.21875 -2.15625 C 6.007812 -1.425781 5.640625 -0.863281 5.109375 -0.46875 C 4.578125 -0.0703125 3.925781 0.125 3.15625 0.125 Z M 3.15625 0.125" transform="translate(79.759 35.368)"/></g></g></g><g fill="#5E17EB"><g><g><path d="M 0.71875 -2.515625 L 1 -4.234375 C 1.0625 -4.640625 1.171875 -5.003906 1.328125 -5.328125 C 1.484375 -5.648438 1.675781 -5.925781 1.90625 -6.15625 C 2.132812 -6.382812 2.394531 -6.5625 2.6875 -6.6875 C 2.976562 -6.8125 3.296875 -6.875 3.640625 -6.875 C 4.128906 -6.875 4.503906 -6.757812 4.765625 -6.53125 C 5.023438 -6.300781 5.175781 -5.988281 5.21875 -5.59375 L 5.3125 -5.59375 L 5.5 -6.75 L 6.515625 -6.75 L 5.6875 -1.4375 C 5.65625 -1.269531 5.675781 -1.140625 5.75 -1.046875 C 5.832031 -0.960938 5.945312 -0.921875 6.09375 -0.921875 L 6.625 -0.921875 L 6.46875 0.03125 L 5.6875 0.03125 C 5.332031 0.03125 5.054688 -0.078125 4.859375 -0.296875 C 4.660156 -0.523438 4.582031 -0.816406 4.625 -1.171875 L 4.515625 -1.171875 C 4.359375 -0.765625 4.109375 -0.445312 3.765625 -0.21875 C 3.421875 0.0078125 3.003906 0.125 2.515625 0.125 C 2.179688 0.125 1.882812 0.0625 1.625 -0.0625 C 1.375 -0.195312 1.171875 -0.378906 1.015625 -0.609375 C 0.859375 -0.835938 0.753906 -1.113281 0.703125 -1.4375 C 0.648438 -1.757812 0.65625 -2.117188 0.71875 -2.515625 Z M 3.0625 -0.828125 C 3.488281 -0.828125 3.847656 -0.960938 4.140625 -1.234375 C 4.441406 -1.503906 4.644531 -1.882812 4.75 -2.375 L 5.0625 -4.34375 C 5.113281 -4.832031 5.035156 -5.21875 4.828125 -5.5 C 4.617188 -5.78125 4.300781 -5.921875 3.875 -5.921875 C 3.382812 -5.921875 2.984375 -5.769531 2.671875 -5.46875 C 2.359375 -5.164062 2.160156 -4.753906 2.078125 -4.234375 L 1.8125 -2.515625 C 1.71875 -1.992188 1.78125 -1.582031 2 -1.28125 C 2.226562 -0.976562 2.582031 -0.828125 3.0625 -0.828125 Z M 3.0625 -0.828125" transform="translate(87.735 35.368)"/></g></g></g><g fill="#5E17EB"><g><g><path d="M 0.765625 0 L 1.828125 -6.75 L 2.84375 -6.75 L 2.671875 -5.59375 L 2.765625 -5.59375 C 2.929688 -5.988281 3.203125 -6.300781 3.578125 -6.53125 C 3.953125 -6.757812 4.382812 -6.875 4.875 -6.875 C 5.21875 -6.875 5.519531 -6.8125 5.78125 -6.6875 C 6.039062 -6.570312 6.25 -6.40625 6.40625 -6.1875 C 6.570312 -5.96875 6.679688 -5.703125 6.734375 -5.390625 C 6.796875 -5.085938 6.796875 -4.75 6.734375 -4.375 L 6.671875 -3.9375 L 5.59375 -3.9375 L 5.640625 -4.234375 C 5.722656 -4.765625 5.648438 -5.179688 5.421875 -5.484375 C 5.203125 -5.785156 4.851562 -5.9375 4.375 -5.9375 C 3.882812 -5.9375 3.472656 -5.78125 3.140625 -5.46875 C 2.804688 -5.164062 2.597656 -4.753906 2.515625 -4.234375 L 1.84375 0 Z M 0.765625 0" transform="translate(95.71 35.368)"/></g></g></g><g fill="#5E17EB"><g><g><path d="M 0.78125 -2.515625 L 1.046875 -4.234375 C 1.109375 -4.628906 1.21875 -4.988281 1.375 -5.3125 C 1.539062 -5.644531 1.738281 -5.925781 1.96875 -6.15625 C 2.207031 -6.382812 2.472656 -6.5625 2.765625 -6.6875 C 3.066406 -6.8125 3.390625 -6.875 3.734375 -6.875 C 4.222656 -6.875 4.609375 -6.757812 4.890625 -6.53125 C 5.179688 -6.300781 5.347656 -5.988281 5.390625 -5.59375 L 5.484375 -5.59375 C 5.484375 -5.632812 5.488281 -5.703125 5.5 -5.796875 C 5.507812 -5.890625 5.519531 -5.992188 5.53125 -6.109375 C 5.539062 -6.222656 5.550781 -6.335938 5.5625 -6.453125 C 5.582031 -6.566406 5.597656 -6.664062 5.609375 -6.75 L 5.96875 -8.96875 L 7.046875 -8.96875 L 5.625 0 L 4.609375 0 L 4.796875 -1.171875 L 4.6875 -1.171875 C 4.53125 -0.765625 4.269531 -0.445312 3.90625 -0.21875 C 3.539062 0.0078125 3.109375 0.125 2.609375 0.125 C 2.265625 0.125 1.960938 0.0625 1.703125 -0.0625 C 1.453125 -0.195312 1.242188 -0.378906 1.078125 -0.609375 C 0.921875 -0.835938 0.8125 -1.113281 0.75 -1.4375 C 0.695312 -1.757812 0.707031 -2.117188 0.78125 -2.515625 Z M 3.109375 -0.828125 C 3.566406 -0.828125 3.953125 -0.960938 4.265625 -1.234375 C 4.578125 -1.503906 4.789062 -1.875 4.90625 -2.34375 L 5.25 -4.421875 C 5.289062 -4.878906 5.191406 -5.242188 4.953125 -5.515625 C 4.722656 -5.785156 4.394531 -5.921875 3.96875 -5.921875 C 3.457031 -5.921875 3.039062 -5.769531 2.71875 -5.46875 C 2.40625 -5.164062 2.207031 -4.753906 2.125 -4.234375 L 1.859375 -2.515625 C 1.765625 -1.992188 1.828125 -1.582031 2.046875 -1.28125 C 2.273438 -0.976562 2.628906 -0.828125 3.109375 -0.828125 Z M 3.109375 -0.828125" transform="translate(103.686 35.368)"/></g></g></g><g fill="#5E17EB"><g><g><path d="M 2.859375 0.125 C 2.160156 0.125 1.609375 -0.0351562 1.203125 -0.359375 C 0.804688 -0.679688 0.625 -1.113281 0.65625 -1.65625 L 1.734375 -1.65625 C 1.742188 -1.414062 1.863281 -1.222656 2.09375 -1.078125 C 2.332031 -0.929688 2.640625 -0.859375 3.015625 -0.859375 L 3.359375 -0.859375 C 3.804688 -0.859375 4.164062 -0.945312 4.4375 -1.125 C 4.707031 -1.3125 4.867188 -1.566406 4.921875 -1.890625 C 5.015625 -2.441406 4.691406 -2.769531 3.953125 -2.875 L 2.953125 -3.015625 C 1.691406 -3.203125 1.148438 -3.851562 1.328125 -4.96875 C 1.421875 -5.570312 1.703125 -6.039062 2.171875 -6.375 C 2.648438 -6.707031 3.273438 -6.875 4.046875 -6.875 L 4.390625 -6.875 C 5.023438 -6.875 5.53125 -6.71875 5.90625 -6.40625 C 6.289062 -6.101562 6.484375 -5.691406 6.484375 -5.171875 L 5.40625 -5.171875 C 5.382812 -5.390625 5.265625 -5.5625 5.046875 -5.6875 C 4.835938 -5.820312 4.5625 -5.890625 4.21875 -5.890625 L 3.875 -5.890625 C 3.457031 -5.890625 3.117188 -5.804688 2.859375 -5.640625 C 2.609375 -5.484375 2.457031 -5.238281 2.40625 -4.90625 C 2.363281 -4.644531 2.410156 -4.441406 2.546875 -4.296875 C 2.679688 -4.160156 2.925781 -4.066406 3.28125 -4.015625 L 4.28125 -3.875 C 5.613281 -3.675781 6.1875 -3.015625 6 -1.890625 C 5.90625 -1.253906 5.613281 -0.757812 5.125 -0.40625 C 4.632812 -0.0507812 3.992188 0.125 3.203125 0.125 Z M 2.859375 0.125" transform="translate(111.662 35.368)"/></g></g></g><g fill="#5E17EB"><g><g><path d="M 5.1875 -12.421875 L 3.53125 -2 L 8.953125 -2 L 8.625 0 L 1.0625 0 L 3.03125 -12.421875 Z M 5.1875 -12.421875" transform="translate(55 23.358)"/></g></g></g><g fill="#5E17EB"><g><g><path d="M 4.28125 0.171875 C 3.65625 0.171875 3.109375 0.0820312 2.640625 -0.09375 C 2.171875 -0.269531 1.78125 -0.519531 1.46875 -0.84375 C 1.15625 -1.164062 0.9375 -1.554688 0.8125 -2.015625 C 0.695312 -2.472656 0.6875 -2.984375 0.78125 -3.546875 L 1.15625 -5.953125 C 1.25 -6.515625 1.425781 -7.023438 1.6875 -7.484375 C 1.957031 -7.941406 2.296875 -8.332031 2.703125 -8.65625 C 3.109375 -8.976562 3.578125 -9.222656 4.109375 -9.390625 C 4.648438 -9.566406 5.226562 -9.65625 5.84375 -9.65625 C 6.457031 -9.65625 7 -9.566406 7.46875 -9.390625 C 7.945312 -9.210938 8.335938 -8.957031 8.640625 -8.625 C 8.953125 -8.300781 9.164062 -7.910156 9.28125 -7.453125 C 9.40625 -7.003906 9.421875 -6.5 9.328125 -5.9375 L 9.0625 -4.203125 L 3 -4.203125 L 2.890625 -3.59375 C 2.796875 -2.945312 2.894531 -2.441406 3.1875 -2.078125 C 3.476562 -1.722656 3.929688 -1.546875 4.546875 -1.546875 C 5.023438 -1.546875 5.441406 -1.617188 5.796875 -1.765625 C 6.148438 -1.921875 6.414062 -2.140625 6.59375 -2.421875 L 8.71875 -2.421875 C 8.550781 -2.023438 8.320312 -1.664062 8.03125 -1.34375 C 7.738281 -1.03125 7.394531 -0.757812 7 -0.53125 C 6.613281 -0.3125 6.1875 -0.140625 5.71875 -0.015625 C 5.257812 0.109375 4.78125 0.171875 4.28125 0.171875 Z M 7.1875 -5.640625 L 7.25 -5.9375 C 7.351562 -6.5625 7.253906 -7.050781 6.953125 -7.40625 C 6.648438 -7.757812 6.191406 -7.9375 5.578125 -7.9375 C 4.953125 -7.9375 4.4375 -7.757812 4.03125 -7.40625 C 3.625 -7.050781 3.375 -6.566406 3.28125 -5.953125 L 3.21875 -5.640625 Z M 7.1875 -5.640625" transform="translate(66.205 23.358)"/></g></g></g><g fill="#5E17EB"><g><g><path d="M 0.734375 -3.59375 L 1.125 -5.953125 C 1.21875 -6.515625 1.375 -7.023438 1.59375 -7.484375 C 1.8125 -7.941406 2.082031 -8.332031 2.40625 -8.65625 C 2.726562 -8.976562 3.097656 -9.222656 3.515625 -9.390625 C 3.941406 -9.566406 4.394531 -9.65625 4.875 -9.65625 C 5.5625 -9.65625 6.070312 -9.5 6.40625 -9.1875 C 6.738281 -8.882812 6.914062 -8.4375 6.9375 -7.84375 L 7.125 -7.84375 L 7.390625 -9.484375 L 9.4375 -9.484375 L 8.296875 -2.34375 C 8.273438 -2.132812 8.316406 -1.96875 8.421875 -1.84375 C 8.523438 -1.71875 8.679688 -1.65625 8.890625 -1.65625 L 9.453125 -1.65625 L 9.171875 0.0625 L 7.84375 0.0625 C 7.28125 0.0625 6.84375 -0.09375 6.53125 -0.40625 C 6.21875 -0.71875 6.097656 -1.132812 6.171875 -1.65625 L 5.96875 -1.65625 C 5.769531 -1.082031 5.445312 -0.632812 5 -0.3125 C 4.550781 0.0078125 4 0.171875 3.34375 0.171875 C 2.863281 0.171875 2.4375 0.0820312 2.0625 -0.09375 C 1.695312 -0.269531 1.398438 -0.519531 1.171875 -0.84375 C 0.953125 -1.175781 0.800781 -1.578125 0.71875 -2.046875 C 0.644531 -2.515625 0.648438 -3.03125 0.734375 -3.59375 Z M 4.34375 -1.703125 C 4.851562 -1.703125 5.273438 -1.851562 5.609375 -2.15625 C 5.953125 -2.457031 6.1875 -2.867188 6.3125 -3.390625 L 6.703125 -6.09375 C 6.765625 -6.613281 6.675781 -7.023438 6.4375 -7.328125 C 6.195312 -7.640625 5.820312 -7.796875 5.3125 -7.796875 C 4.757812 -7.796875 4.300781 -7.625 3.9375 -7.28125 C 3.570312 -6.945312 3.347656 -6.488281 3.265625 -5.90625 L 2.890625 -3.640625 C 2.804688 -3.046875 2.882812 -2.570312 3.125 -2.21875 C 3.363281 -1.875 3.769531 -1.703125 4.34375 -1.703125 Z M 4.34375 -1.703125" transform="translate(77.41 23.358)"/></g></g></g><g fill="#5E17EB"><g><g><path d="M 0.78125 0 L 2.28125 -9.484375 L 4.296875 -9.484375 L 4.03125 -7.84375 L 4.1875 -7.84375 C 4.394531 -8.425781 4.75 -8.875 5.25 -9.1875 C 5.757812 -9.5 6.378906 -9.65625 7.109375 -9.65625 C 8.117188 -9.65625 8.859375 -9.335938 9.328125 -8.703125 C 9.804688 -8.066406 9.957031 -7.195312 9.78125 -6.09375 L 9.671875 -5.359375 L 7.4375 -5.359375 L 7.5 -5.90625 C 7.601562 -6.507812 7.515625 -6.984375 7.234375 -7.328125 C 6.960938 -7.671875 6.535156 -7.84375 5.953125 -7.84375 C 5.398438 -7.84375 4.929688 -7.664062 4.546875 -7.3125 C 4.171875 -6.96875 3.9375 -6.5 3.84375 -5.90625 L 2.921875 0 Z M 0.78125 0" transform="translate(88.615 23.358)"/></g></g></g><g fill="#5E17EB"><g><g><path d="M 0.375 0 L 1.875 -9.484375 L 3.9375 -9.484375 L 3.671875 -7.84375 L 3.828125 -7.84375 C 4.023438 -8.425781 4.367188 -8.875 4.859375 -9.1875 C 5.347656 -9.5 5.9375 -9.65625 6.625 -9.65625 C 7.082031 -9.65625 7.488281 -9.570312 7.84375 -9.40625 C 8.207031 -9.238281 8.5 -9 8.71875 -8.6875 C 8.945312 -8.382812 9.101562 -8.019531 9.1875 -7.59375 C 9.269531 -7.164062 9.269531 -6.691406 9.1875 -6.171875 L 8.21875 0 L 6.0625 0 L 6.984375 -5.953125 C 7.078125 -6.535156 6.992188 -6.988281 6.734375 -7.3125 C 6.484375 -7.632812 6.085938 -7.796875 5.546875 -7.796875 C 4.992188 -7.796875 4.535156 -7.625 4.171875 -7.28125 C 3.804688 -6.945312 3.578125 -6.488281 3.484375 -5.90625 L 2.53125 0 Z M 0.375 0" transform="translate(99.82 23.358)"/></g></g></g><g fill="#5E17EB"><g><g><path d="M 0.875 -1.96875 L 4.28125 -1.96875 L 5.171875 -7.53125 L 2.203125 -7.53125 L 2.5 -9.484375 L 7.53125 -9.484375 L 6.34375 -1.96875 L 9.09375 -1.96875 L 8.78125 0 L 0.5625 0 Z M 5.328125 -12.15625 C 5.390625 -12.488281 5.546875 -12.757812 5.796875 -12.96875 C 6.046875 -13.1875 6.359375 -13.296875 6.734375 -13.296875 L 7.171875 -13.296875 C 7.546875 -13.296875 7.828125 -13.1875 8.015625 -12.96875 C 8.203125 -12.757812 8.269531 -12.488281 8.21875 -12.15625 C 8.15625 -11.8125 7.992188 -11.535156 7.734375 -11.328125 C 7.472656 -11.117188 7.160156 -11.015625 6.796875 -11.015625 L 6.359375 -11.015625 C 5.992188 -11.015625 5.71875 -11.117188 5.53125 -11.328125 C 5.34375 -11.535156 5.273438 -11.8125 5.328125 -12.15625 Z M 5.328125 -12.15625" transform="translate(111.025 23.358)"/></g></g></g><g fill="#5E17EB"><g><g><path d="M 0.375 0 L 1.875 -9.484375 L 3.9375 -9.484375 L 3.671875 -7.84375 L 3.828125 -7.84375 C 4.023438 -8.425781 4.367188 -8.875 4.859375 -9.1875 C 5.347656 -9.5 5.9375 -9.65625 6.625 -9.65625 C 7.082031 -9.65625 7.488281 -9.570312 7.84375 -9.40625 C 8.207031 -9.238281 8.5 -9 8.71875 -8.6875 C 8.945312 -8.382812 9.101562 -8.019531 9.1875 -7.59375 C 9.269531 -7.164062 9.269531 -6.691406 9.1875 -6.171875 L 8.21875 0 L 6.0625 0 L 6.984375 -5.953125 C 7.078125 -6.535156 6.992188 -6.988281 6.734375 -7.3125 C 6.484375 -7.632812 6.085938 -7.796875 5.546875 -7.796875 C 4.992188 -7.796875 4.535156 -7.625 4.171875 -7.28125 C 3.804688 -6.945312 3.578125 -6.488281 3.484375 -5.90625 L 2.53125 0 Z M 0.375 0" transform="translate(122.23 23.358)"/></g></g></g><g fill="#5E17EB"><g><g><path d="M 3.53125 -0.78125 C 3.039062 -0.78125 2.601562 -0.863281 2.21875 -1.03125 C 1.84375 -1.207031 1.539062 -1.457031 1.3125 -1.78125 C 1.082031 -2.101562 0.921875 -2.488281 0.828125 -2.9375 C 0.742188 -3.394531 0.75 -3.898438 0.84375 -4.453125 L 1.09375 -5.984375 C 1.175781 -6.535156 1.328125 -7.035156 1.546875 -7.484375 C 1.773438 -7.941406 2.054688 -8.332031 2.390625 -8.65625 C 2.722656 -8.976562 3.101562 -9.222656 3.53125 -9.390625 C 3.96875 -9.566406 4.4375 -9.65625 4.9375 -9.65625 C 5.644531 -9.65625 6.203125 -9.484375 6.609375 -9.140625 C 7.023438 -8.804688 7.238281 -8.347656 7.25 -7.765625 L 7.359375 -7.765625 L 7.640625 -9.484375 L 9.71875 -9.484375 L 8.3125 -0.59375 C 8.226562 -0.0625 8.054688 0.410156 7.796875 0.828125 C 7.546875 1.253906 7.226562 1.613281 6.84375 1.90625 C 6.457031 2.207031 6.003906 2.4375 5.484375 2.59375 C 4.972656 2.757812 4.414062 2.84375 3.8125 2.84375 L 1.296875 2.84375 L 1.5625 1.046875 L 4.109375 1.046875 C 4.660156 1.046875 5.113281 0.898438 5.46875 0.609375 C 5.832031 0.328125 6.054688 -0.0703125 6.140625 -0.59375 L 6.5625 -2.671875 L 6.453125 -2.671875 C 6.242188 -2.085938 5.878906 -1.625 5.359375 -1.28125 C 4.847656 -0.945312 4.238281 -0.78125 3.53125 -0.78125 Z M 3.015625 -4.5 C 2.921875 -3.914062 3.015625 -3.457031 3.296875 -3.125 C 3.578125 -2.800781 4.015625 -2.640625 4.609375 -2.640625 C 5.179688 -2.640625 5.660156 -2.804688 6.046875 -3.140625 C 6.429688 -3.472656 6.671875 -3.925781 6.765625 -4.5 L 6.78125 -4.5 L 7.015625 -6.140625 C 7.066406 -6.660156 6.953125 -7.066406 6.671875 -7.359375 C 6.390625 -7.648438 5.972656 -7.796875 5.421875 -7.796875 C 4.828125 -7.796875 4.335938 -7.628906 3.953125 -7.296875 C 3.566406 -6.960938 3.332031 -6.507812 3.25 -5.9375 Z M 3.015625 -4.5" transform="translate(133.436 23.358)"/></g></g></g></svg>