<?xml version="1.0" standalone="no"?>
<!DOCTYPE svg PUBLIC "-//W3C//DTD SVG 20010904//EN"
        "http://www.w3.org/TR/2001/REC-SVG-20010904/DTD/svg10.dtd">
<svg version="1.0" xmlns="http://www.w3.org/2000/svg"
     width="512.000000pt" height="512.000000pt" viewBox="0 0 512.000000 512.000000"
     preserveAspectRatio="xMidYMid meet">
    <metadata>
        Created by potrace 1.16, written by Peter Selinger 2001-2019
    </metadata>
    <g transform="translate(0.000000,512.000000) scale(0.100000,-0.100000)"
       fill="#000000" stroke="none">
        <path d="M2152 5099 c-24 -12 -54 -36 -67 -53 -58 -76 -55 -25 -55 -1031 l0
-925 -929 0 -929 0 -53 -28 c-34 -17 -65 -44 -84 -71 l-30 -43 0 -388 0 -388
30 -43 c19 -27 50 -54 84 -71 49 -26 62 -28 166 -28 98 0 116 3 139 21 35 28
36 80 1 114 -22 23 -31 25 -123 25 -83 0 -104 3 -123 19 l-24 19 0 332 0 332
24 19 c22 18 53 19 982 19 681 0 965 3 982 11 14 6 30 22 36 36 8 17 11 301
11 982 0 929 1 960 19 982 l19 24 332 0 332 0 19 -24 c18 -22 19 -53 19 -982
0 -681 3 -965 11 -982 6 -14 22 -30 36 -36 17 -8 277 -11 892 -11 l869 0 6
-22 c3 -13 6 -169 6 -348 0 -179 -3 -335 -6 -347 l-6 -23 -869 0 c-615 0 -875
-3 -892 -11 -14 -6 -30 -22 -36 -36 -8 -17 -11 -301 -11 -982 0 -929 -1 -960
-19 -982 l-19 -24 -332 0 -332 0 -19 24 c-18 22 -19 53 -19 982 0 681 -3 965
-11 982 -6 14 -22 30 -36 36 -17 8 -242 11 -759 11 l-735 0 -24 -25 c-35 -34
-34 -86 1 -114 26 -21 34 -21 715 -21 l689 0 0 -929 0 -929 28 -53 c17 -34 44
-65 71 -84 l43 -30 388 0 388 0 43 30 c27 19 54 50 71 84 l28 53 0 929 0 929
929 0 929 0 53 28 c34 17 65 44 84 71 l30 43 0 388 0 388 -30 43 c-19 27 -50
54 -84 71 l-53 28 -929 0 -929 0 0 929 0 929 -28 53 c-17 34 -44 65 -71 84
l-43 30 -376 3 c-368 2 -378 2 -420 -19z"/>
    </g>
</svg>
