<?xml version="1.0" standalone="no"?>
<!DOCTYPE svg PUBLIC "-//W3C//DTD SVG 20010904//EN"
        "http://www.w3.org/TR/2001/REC-SVG-20010904/DTD/svg10.dtd">
<svg version="1.0" xmlns="http://www.w3.org/2000/svg"
     width="512.000000pt" height="512.000000pt" viewBox="0 0 512.000000 512.000000"
     preserveAspectRatio="xMidYMid meet">
    <metadata>
        Created by potrace 1.16, written by Peter Selinger 2001-2019
    </metadata>
    <g transform="translate(0.000000,512.000000) scale(0.100000,-0.100000)"
       stroke="none">
        <path d="M2499 5061 c-21 -17 -24 -29 -28 -105 -3 -80 -2 -86 23 -110 35 -36
97 -36 131 -1 22 21 25 33 25 95 0 74 -16 123 -45 134 -32 12 -83 6 -106 -13z"/>
        <path d="M1693 4991 c-54 -34 -53 -66 12 -221 31 -74 65 -145 77 -157 50 -53
148 -13 148 59 0 39 -99 282 -126 309 -29 29 -74 33 -111 10z"/>
        <path d="M3354 5002 c-12 -2 -30 -13 -41 -25 -28 -32 -123 -267 -123 -305 0
-76 102 -113 152 -54 34 41 132 286 125 314 -13 50 -60 79 -113 70z"/>
        <path d="M1064 4490 c-32 -13 -54 -50 -54 -89 0 -29 10 -45 68 -103 60 -60 73
-68 106 -68 52 0 86 35 86 90 0 36 -7 48 -52 97 -29 31 -67 62 -85 69 -37 16
-40 16 -69 4z"/>
        <path d="M3990 4489 c-38 -15 -128 -109 -140 -145 -20 -60 22 -114 89 -114 29
0 45 10 103 68 59 59 68 73 68 105 0 64 -62 109 -120 86z"/>
        <path d="M2122 4380 c-99 -26 -184 -73 -262 -146 l-65 -60 -59 9 c-215 31
-445 -137 -472 -346 -6 -42 -11 -50 -43 -67 -50 -25 -127 -110 -153 -167 -14
-34 -22 -74 -24 -136 -3 -71 -8 -96 -28 -130 -77 -133 -102 -344 -60 -511 5
-20 0 -23 -56 -34 -46 -10 -68 -21 -95 -47 -31 -32 -40 -52 -59 -137 l-6 -28
-99 0 c-119 0 -173 -22 -208 -86 -15 -28 -73 -305 -213 -1024 -204 -1048 -202
-1037 -161 -1118 26 -51 99 -115 149 -130 29 -9 280 -12 946 -12 l907 0 35
-35 c44 -45 116 -81 212 -107 112 -31 392 -31 504 0 97 26 164 61 207 106 l35
36 909 0 c668 0 920 3 949 12 50 15 122 78 151 132 16 31 21 58 21 111 -1 101
-368 1975 -397 2029 -35 64 -89 86 -208 86 l-99 0 -5 28 c-24 114 -61 162
-143 182 l-50 11 1 87 c1 97 -14 174 -49 244 -19 38 -22 52 -14 73 13 34 13
149 0 195 -28 100 -119 198 -218 233 -45 17 -48 20 -60 70 -16 71 -82 200
-137 269 -114 144 -313 249 -504 265 -74 6 -76 7 -123 55 -26 27 -74 61 -105
76 -50 23 -71 27 -148 26 -95 0 -137 -12 -205 -59 l-35 -24 -60 30 c-119 58
-271 73 -403 39z m278 -185 c78 -28 90 -40 79 -77 -16 -58 -11 -105 15 -135
52 -60 156 -21 156 60 1 73 54 143 127 168 101 33 223 -59 223 -169 0 -18 10
-42 24 -59 19 -22 32 -28 66 -28 34 0 47 6 66 28 13 16 24 39 24 52 0 22 3 24
33 19 185 -33 336 -142 410 -295 55 -115 55 -114 3 -138 -92 -40 -122 -105
-76 -164 31 -39 72 -43 130 -13 97 51 201 24 247 -63 13 -24 23 -60 23 -79 0
-51 -36 -118 -76 -142 -78 -49 -95 -110 -45 -161 35 -34 66 -37 120 -9 l39 19
7 -27 c4 -15 6 -54 6 -88 -1 -211 -210 -384 -415 -344 -51 10 -136 43 -136 53
0 2 9 21 19 43 42 86 35 215 -16 274 -20 24 -33 30 -66 30 -76 0 -104 -55 -76
-149 21 -71 -40 -151 -116 -151 -31 0 -95 33 -95 48 0 5 -12 21 -26 36 -35 34
-97 36 -131 4 -54 -51 -13 -156 85 -219 65 -41 114 -52 201 -46 72 6 77 5 130
-28 111 -69 254 -99 371 -77 l55 10 -62 -58 c-67 -64 -155 -111 -248 -135 -72
-18 -105 -50 -105 -101 0 -24 8 -43 26 -61 23 -23 31 -25 82 -20 32 4 77 13
100 21 l43 16 32 -67 c39 -86 40 -127 3 -159 -46 -40 -77 -32 -157 42 -77 70
-131 100 -280 158 -97 37 -178 86 -204 124 -14 19 -12 20 51 32 86 16 116 42
118 99 1 35 -4 47 -27 67 -33 28 -48 29 -142 9 -99 -21 -198 -19 -291 6 -135
37 -133 37 -195 -16 -68 -59 -129 -90 -201 -104 -152 -28 -318 61 -386 207
-23 49 -27 70 -26 147 0 76 5 99 27 149 34 73 35 115 4 144 -59 55 -130 29
-167 -62 -28 -67 -47 -71 -95 -23 -24 24 -35 46 -40 79 -12 77 -64 113 -126
88 -61 -26 -73 -106 -29 -206 36 -83 150 -174 217 -174 20 0 23 -5 23 -39 0
-46 -9 -51 -90 -51 -352 0 -608 347 -500 675 l12 35 35 -27 c67 -51 145 -30
159 42 7 41 -2 58 -64 120 -75 76 -83 159 -20 231 41 47 77 64 133 64 55 0 76
-10 132 -61 52 -47 97 -52 140 -15 22 19 28 32 28 65 0 34 -7 47 -40 82 -50
51 -106 84 -167 100 -27 6 -48 14 -48 18 0 3 14 30 31 59 35 61 94 104 169
122 61 15 72 9 58 -30 -22 -65 16 -120 85 -120 51 0 69 16 92 80 48 136 161
240 300 277 60 15 164 10 225 -12z m-1350 -1573 c0 -14 87 -111 142 -158 69
-59 192 -118 292 -140 62 -13 106 -16 195 -11 l116 6 34 -51 c75 -108 196
-186 336 -215 145 -30 302 6 429 97 47 34 43 34 192 4 14 -2 27 -18 38 -48 40
-106 145 -191 315 -257 149 -58 175 -73 246 -139 82 -76 115 -92 201 -98 56
-3 80 0 115 15 62 28 106 68 133 122 48 94 43 176 -17 305 l-32 68 80 82 c92
93 137 164 174 274 14 42 35 92 46 110 17 28 25 32 61 32 l41 0 152 -916 c84
-503 151 -918 148 -920 -2 -3 -44 7 -93 21 -120 35 -284 70 -429 91 -152 23
-600 26 -745 6 -154 -22 -342 -61 -449 -92 -55 -17 -105 -30 -111 -30 -7 0
-10 177 -10 545 l0 546 -25 24 c-34 35 -96 35 -130 0 l-25 -24 0 -546 c0 -368
-3 -545 -10 -545 -6 0 -55 13 -110 30 -111 32 -305 72 -450 92 -147 20 -595
17 -745 -5 -145 -22 -309 -57 -429 -92 -49 -14 -91 -24 -93 -21 -3 2 64 416
148 920 l152 915 41 4 c23 2 49 4 59 5 9 1 17 -2 17 -6z m-340 -227 c0 -2 -61
-372 -135 -821 -145 -880 -143 -856 -93 -919 25 -32 91 -64 131 -65 16 0 83
16 150 35 137 40 323 77 472 96 147 19 513 16 665 -5 193 -26 174 -11 166
-130 -4 -56 -9 -122 -13 -149 l-6 -47 -886 0 c-957 0 -913 -2 -941 51 -8 15
31 237 175 977 102 526 188 963 190 970 4 11 125 19 125 7z m4012 -960 c103
-528 187 -966 188 -973 0 -8 -13 -27 -29 -43 l-29 -29 -890 0 -889 0 -6 47
c-4 27 -9 93 -13 149 -8 119 -27 104 166 130 153 21 518 24 665 5 150 -19 336
-57 472 -96 67 -19 134 -35 150 -35 40 1 106 33 131 65 50 64 53 39 -93 920
-74 450 -135 820 -135 822 0 2 28 3 62 1 l62 -3 188 -960z m-2342 -826 c196
-69 179 -67 262 -34 75 29 220 76 224 72 1 -1 8 -80 16 -176 l14 -174 -52 -24
c-154 -70 -414 -70 -568 0 l-52 24 12 139 c7 76 13 156 13 177 1 20 4 37 9 37
4 -1 59 -19 122 -41z"/>
        <path d="M2200 3706 c-141 -31 -253 -136 -294 -275 -36 -122 -7 -201 74 -201
57 0 83 34 95 123 12 92 98 170 203 183 41 5 57 13 77 36 14 16 25 38 25 48 0
33 -23 71 -51 86 -33 17 -55 17 -129 0z"/>
        <path d="M3029 3365 c-14 -8 -31 -27 -37 -42 -5 -15 -17 -49 -26 -75 -29 -81
-96 -151 -183 -191 -74 -34 -199 -31 -273 7 -30 15 -68 40 -85 55 -44 42 -73
54 -111 46 -41 -7 -68 -44 -68 -91 0 -68 117 -159 268 -208 18 -6 17 -9 -9
-36 -33 -35 -120 -70 -171 -70 -103 0 -117 -151 -17 -176 42 -11 149 11 219
46 69 34 145 109 184 182 20 39 30 47 60 52 59 9 171 71 224 123 89 88 156
216 156 299 0 66 -75 111 -131 79z"/>
        <path d="M545 3838 c-11 -6 -25 -19 -32 -27 -16 -21 -16 -76 -1 -101 13 -20
281 -140 313 -140 58 0 106 70 86 123 -13 35 -34 47 -178 107 -126 52 -154 57
-188 38z"/>
        <path d="M4377 3796 c-140 -59 -155 -68 -168 -105 -20 -51 29 -121 86 -121 28
0 277 108 301 131 27 25 32 82 11 110 -17 22 -51 39 -79 39 -13 0 -81 -25
-151 -54z"/>
    </g>
</svg>
