<?xml version="1.0" standalone="no"?>
<!DOCTYPE svg PUBLIC "-//W3C//DTD SVG 20010904//EN"
        "http://www.w3.org/TR/2001/REC-SVG-20010904/DTD/svg10.dtd">
<svg version="1.0" xmlns="http://www.w3.org/2000/svg"
     width="512.000000pt" height="512.000000pt" viewBox="0 0 512.000000 512.000000"
     preserveAspectRatio="xMidYMid meet">
    <metadata>
        Created by potrace 1.16, written by Peter Selinger 2001-2019
    </metadata>
    <g transform="translate(0.000000,512.000000) scale(0.100000,-0.100000)"
       stroke="none">
        <path d="M2498 4691 c-53 -17 -98 -53 -126 -99 l-27 -47 0 -925 c0 -1019 -4
-948 61 -1014 46 -45 83 -60 154 -60 71 0 108 15 154 60 65 66 61 -5 61 1014
l0 925 -28 47 c-35 60 -97 98 -169 103 -29 3 -65 0 -80 -4z"/>
        <path d="M3738 4261 c-53 -17 -98 -53 -126 -99 -22 -39 -27 -59 -27 -112 1
-41 7 -76 17 -96 9 -17 74 -89 145 -160 154 -155 241 -275 328 -449 120 -243
172 -443 182 -705 8 -228 -16 -397 -88 -614 -296 -894 -1264 -1377 -2152
-1075 -131 44 -317 138 -427 217 -127 90 -294 253 -391 382 -136 181 -258 449
-303 670 -83 408 -20 824 179 1185 78 141 170 261 303 395 120 120 151 168
152 234 0 95 -66 193 -146 215 -111 31 -173 4 -312 -132 -287 -282 -491 -636
-586 -1017 -121 -489 -68 -1010 148 -1455 114 -236 221 -389 401 -574 334
-344 734 -549 1220 -627 149 -24 457 -25 610 -1 903 140 1607 810 1789 1701
129 628 -27 1272 -431 1783 -76 97 -276 294 -322 317 -39 21 -124 29 -163 17z"/>
    </g>
</svg>
