<?xml version="1.0" standalone="no"?>
<!DOCTYPE svg PUBLIC "-//W3C//DTD SVG 20010904//EN"
 "http://www.w3.org/TR/2001/REC-SVG-20010904/DTD/svg10.dtd">
<svg version="1.0" xmlns="http://www.w3.org/2000/svg"
 width="512.000000pt" height="512.000000pt" viewBox="0 0 512.000000 512.000000"
 preserveAspectRatio="xMidYMid meet">
<metadata>
Created by potrace 1.16, written by Peter Selinger 2001-2019
</metadata>
<g transform="translate(0.000000,512.000000) scale(0.100000,-0.100000)"
fill="#000000" stroke="none">
<path d="M745 4496 c-113 -28 -209 -105 -261 -211 l-29 -60 0 -1665 0 -1665
29 -60 c55 -111 162 -192 285 -215 78 -15 3517 -14 3597 1 126 23 237 109 292
226 l27 58 0 1655 0 1655 -32 65 c-35 71 -96 139 -158 175 -98 58 -2 55 -1930
54 -1372 -1 -1781 -3 -1820 -13z m3619 -150 c62 -19 109 -56 143 -114 l28 -47
3 -237 3 -238 -1976 0 -1977 0 4 228 c5 249 8 267 68 336 33 37 72 62 120 77
14 4 815 8 1781 8 1487 1 1763 -1 1803 -13z m176 -2080 c0 -1405 3 -1334 -55
-1410 -14 -18 -49 -46 -77 -62 l-53 -29 -1764 -3 c-1954 -3 -1827 -7 -1908 63
-23 19 -52 56 -65 83 l-23 47 -3 1303 -3 1302 1976 0 1975 0 0 -1294z"/>
<path d="M1010 4088 c-21 -23 -26 -68 -10 -97 16 -31 65 -46 100 -31 53 22 66
77 29 124 -27 34 -88 37 -119 4z"/>
<path d="M1441 4084 c-27 -34 -27 -74 -1 -102 28 -30 62 -36 98 -18 33 17 42
34 42 75 0 68 -97 99 -139 45z"/>
<path d="M1871 4084 c-27 -35 -26 -67 3 -100 50 -59 136 -25 136 52 0 47 -29
74 -79 74 -31 0 -44 -6 -60 -26z"/>
<path d="M915 3268 c-11 -6 -23 -16 -27 -22 -4 -6 -8 -311 -8 -678 l0 -667 26
-20 c26 -21 34 -21 679 -21 645 0 653 0 679 21 l26 20 0 669 0 669 -26 20
c-26 21 -34 21 -678 21 -466 -1 -657 -4 -671 -12z m1225 -698 c0 -529 -1 -560
-18 -560 -13 0 -22 16 -35 66 -58 222 -267 383 -498 384 -201 0 -387 -114
-472 -290 -20 -41 -39 -94 -43 -117 -5 -33 -11 -43 -25 -43 -18 0 -19 19 -19
560 l0 560 555 0 555 0 0 -560z m-408 -293 c100 -45 183 -141 213 -244 l6 -23
-365 0 c-286 0 -366 3 -366 13 0 29 53 121 97 168 79 84 167 121 283 116 55
-3 91 -10 132 -30z"/>
<path d="M1515 3081 c-137 -36 -224 -139 -233 -277 -6 -94 15 -157 75 -224 71
-79 109 -95 228 -95 78 0 107 4 133 18 55 30 112 88 140 141 23 44 27 64 27
136 0 98 -20 152 -82 215 -68 70 -200 109 -288 86z m131 -160 c82 -37 114
-124 75 -205 -29 -58 -73 -86 -137 -86 -88 0 -154 67 -154 158 0 52 34 101 90
130 53 27 73 27 126 3z"/>
<path d="M2542 3270 c-43 -18 -50 -81 -14 -122 14 -17 67 -18 852 -18 l837 0
21 23 c29 31 28 72 -3 102 l-24 25 -823 -1 c-469 0 -833 -4 -846 -9z"/>
<path d="M2543 2838 c-45 -22 -51 -92 -10 -126 11 -9 119 -12 452 -10 l438 3
20 27 c21 28 19 58 -7 93 -14 19 -27 20 -443 22 -288 1 -435 -2 -450 -9z"/>
<path d="M900 1610 c-20 -20 -27 -74 -12 -96 22 -34 35 -34 1615 -34 l1564 0
27 21 c33 26 36 79 6 109 -20 20 -33 20 -1600 20 -1567 0 -1580 0 -1600 -20z"/>
<path d="M900 1180 c-12 -12 -20 -33 -20 -55 0 -22 8 -43 20 -55 20 -20 33
-20 1594 -20 l1573 0 27 21 c34 27 36 77 3 107 l-23 22 -1577 0 c-1564 0
-1577 0 -1597 -20z"/>
</g>
</svg>
