<?xml version="1.0" standalone="no"?>
<!DOCTYPE svg PUBLIC "-//W3C//DTD SVG 20010904//EN"
        "http://www.w3.org/TR/2001/REC-SVG-20010904/DTD/svg10.dtd">
<svg version="1.0" xmlns="http://www.w3.org/2000/svg"
     width="512.000000pt" height="512.000000pt" viewBox="0 0 512.000000 512.000000"
     preserveAspectRatio="xMidYMid meet">
    <metadata>
        Created by potrace 1.16, written by Peter Selinger 2001-2019
    </metadata>
    <g transform="translate(0.000000,512.000000) scale(0.100000,-0.100000)"
       stroke="none">
        <path d="M2455 5101 c-53 -24 -103 -75 -129 -131 -20 -42 -21 -63 -21 -295 0
-270 3 -292 55 -363 89 -124 311 -124 400 0 52 71 55 93 55 363 0 232 -1 253
-21 295 -45 97 -127 150 -234 150 -42 0 -79 -7 -105 -19z"/>
        <path d="M840 4431 c-107 -38 -181 -158 -166 -269 11 -78 51 -134 221 -301
183 -181 213 -201 315 -201 105 0 190 53 231 145 26 55 25 156 -1 214 -27 58
-323 358 -389 394 -66 37 -141 43 -211 18z"/>
        <path d="M4133 4440 c-62 -14 -120 -61 -275 -218 -178 -180 -198 -211 -198
-312 0 -105 53 -190 145 -231 55 -26 156 -25 214 1 57 26 359 323 394 388 106
197 -64 424 -280 372z"/>
        <path d="M2425 3839 c-417 -40 -799 -299 -1004 -679 -194 -361 -194 -839 0
-1200 122 -227 313 -417 540 -539 377 -202 861 -194 1235 21 438 251 690 732
644 1230 -29 311 -154 580 -371 797 -217 216 -486 342 -794 371 -121 11 -121
11 -250 -1z"/>
        <path d="M209 2810 c-128 -23 -209 -119 -209 -250 0 -76 21 -130 71 -179 67
-67 84 -71 380 -71 l265 0 52 26 c85 42 134 124 134 224 0 102 -49 183 -139
227 l-58 28 -225 2 c-124 1 -246 -2 -271 -7z"/>
        <path d="M4420 2810 c-222 -47 -277 -346 -86 -465 l49 -30 271 -3 c304 -3 324
0 391 65 53 51 75 105 75 183 0 107 -53 190 -150 234 -41 18 -67 20 -275 23
-126 1 -250 -2 -275 -7z"/>
        <path d="M1101 1440 c-60 -27 -358 -323 -397 -393 -25 -44 -29 -63 -28 -122 0
-83 23 -133 83 -188 79 -71 194 -83 293 -30 65 35 362 337 388 394 26 58 27
159 1 214 -23 52 -74 103 -126 126 -55 26 -156 25 -214 -1z"/>
        <path d="M3805 1441 c-92 -41 -145 -126 -145 -231 0 -102 20 -132 201 -315
213 -216 275 -248 405 -210 156 45 226 221 147 367 -35 65 -337 362 -394 388
-58 26 -159 27 -214 1z"/>
        <path d="M2510 899 c-63 -12 -130 -57 -162 -109 -42 -68 -51 -138 -46 -380 3
-190 6 -220 24 -260 44 -97 127 -150 234 -150 107 0 189 53 234 150 20 42 21
62 21 300 l0 255 -29 58 c-51 104 -159 157 -276 136z"/>
    </g>
</svg>
