<?xml version="1.0" standalone="no"?>
<!DOCTYPE svg PUBLIC "-//W3C//DTD SVG 20010904//EN"
        "http://www.w3.org/TR/2001/REC-SVG-20010904/DTD/svg10.dtd">
<svg version="1.0" xmlns="http://www.w3.org/2000/svg"
     width="512.000000pt" height="512.000000pt" viewBox="0 0 512.000000 512.000000"
     preserveAspectRatio="xMidYMid meet">
    <metadata>
        Created by potrace 1.16, written by Peter Selinger 2001-2019
    </metadata>
    <g transform="translate(0.000000,512.000000) scale(0.100000,-0.100000)"
       stroke="none">
        <path d="M285 5101 c-108 -39 -199 -121 -251 -226 l-29 -60 0 -1911 0 -1910
37 -75 c46 -93 112 -158 206 -202 l67 -32 223 -3 222 -4 0 -137 c0 -76 5 -163
10 -192 24 -130 118 -253 239 -312 l66 -32 1315 0 1315 0 67 34 c129 64 217
186 238 329 5 38 10 382 10 802 l0 735 518 520 c484 486 520 524 547 585 21
47 30 87 33 144 9 158 -43 283 -172 412 -181 181 -406 225 -596 117 -25 -14
-109 -89 -187 -166 l-143 -141 0 314 c0 173 -5 346 -10 383 -21 143 -107 259
-238 324 l-76 38 -223 3 -223 4 0 137 c0 76 -5 162 -10 192 -26 134 -114 250
-237 311 l-68 33 -1300 2 c-1235 2 -1303 2 -1350 -16z m2622 -176 c59 -25 96
-59 128 -116 l30 -54 3 -1165 2 -1164 -614 -616 -614 -615 -80 -167 -81 -168
-653 0 -653 0 -51 24 c-59 27 -116 90 -132 145 -9 28 -12 511 -12 1880 0 2046
-6 1877 68 1955 20 21 55 47 77 57 38 18 93 19 1293 19 1102 0 1257 -2 1289
-15z m778 -689 c28 -12 65 -40 84 -61 67 -77 66 -65 69 -545 l3 -435 -296
-295 -295 -295 0 828 0 827 193 0 c180 0 195 -2 242 -24z m1014 -711 c131 -66
241 -219 241 -334 0 -79 -33 -141 -119 -226 l-71 -70 -237 238 -238 237 70 70
c95 95 150 123 235 117 45 -3 82 -13 119 -32z m-194 -875 l-115 -115 -237 237
-238 238 115 115 115 115 237 -237 238 -238 -115 -115z m-1415 -815 l-870
-870 -87 88 -88 87 870 870 870 870 87 -87 88 -88 -870 -870z m1088 652 l82
-82 -870 -870 -870 -870 -85 85 -85 85 867 867 c478 478 870 868 873 868 3 0
42 -37 88 -83z m-340 -1537 c-3 -559 -4 -576 -24 -620 -26 -57 -100 -125 -151
-140 -27 -8 -276 -10 -852 -8 l-815 3 285 134 284 135 635 633 635 633 3 -98
c2 -53 2 -356 0 -672z m-1486 -391 c-4 -4 -92 -47 -195 -95 l-188 -88 -106
107 -107 106 69 143 c37 79 79 167 93 197 l25 53 208 -208 c115 -115 205 -211
201 -215z m-863 -108 c-60 -126 -109 -238 -109 -250 0 -20 -5 -21 -122 -21
-138 0 -179 12 -236 70 -66 66 -76 98 -80 273 l-4 157 330 0 330 0 -109 -229z
m245 -100 l59 -59 -108 -51 c-60 -28 -110 -49 -112 -47 -3 3 98 216 102 216 0
0 27 -27 59 -59z"/>
        <path d="M1455 4253 c-241 -51 -451 -225 -546 -452 -66 -158 -77 -347 -25
-435 52 -89 141 -132 251 -123 70 5 111 24 158 71 46 46 68 97 78 182 9 83 33
135 81 180 121 114 302 88 386 -55 23 -39 27 -58 27 -121 0 -103 -22 -137
-212 -332 -227 -234 -285 -335 -287 -504 -1 -84 1 -94 29 -139 76 -124 227
-167 353 -101 59 31 131 135 132 190 0 29 41 79 180 218 244 245 330 419 330
668 0 171 -47 318 -145 455 -173 243 -490 362 -790 298z m310 -183 c208 -53
374 -220 430 -430 19 -72 19 -207 -1 -283 -35 -137 -104 -235 -300 -432 -143
-143 -194 -216 -194 -276 0 -71 -85 -105 -135 -54 -30 29 -32 62 -7 143 27 85
67 138 242 317 204 209 250 292 250 446 0 326 -341 529 -632 377 -128 -68
-227 -222 -228 -356 0 -90 -78 -135 -135 -77 -20 19 -25 34 -25 72 1 161 96
346 233 449 150 113 324 149 502 104z"/>
        <path d="M1499 2192 c-122 -63 -173 -226 -110 -350 39 -77 145 -142 231 -142
65 0 134 31 185 83 99 101 102 246 9 356 -69 82 -213 106 -315 53z m176 -177
c35 -35 33 -76 -6 -109 -40 -34 -64 -33 -101 4 -25 26 -29 36 -24 63 13 65 85
89 131 42z"/>
    </g>
</svg>
